<svg xmlns="http://www.w3.org/2000/svg" width="900" height="520" viewBox="0 0 900 520">
  <rect width="100%" height="100%" fill="white"/>
  <text x="450" y="40" font-family="Arial, Helvetica, sans-serif" font-size="20" text-anchor="middle">Training Maze (Top View)</text>
  <!-- Outer border -->
  <rect x="100" y="80" width="700" height="360" fill="none" stroke="#333" stroke-width="6"/>
  <!-- Walls -->
  <rect x="100" y="160" width="500" height="10" fill="#333"/>
  <rect x="300" y="80" width="10" height="160" fill="#333"/>
  <rect x="500" y="240" width="10" height="200" fill="#333"/>
  <rect x="200" y="320" width="400" height="10" fill="#333"/>
  <rect x="700" y="170" width="100" height="10" fill="#333"/>
  <rect x="700" y="180" width="10" height="260" fill="#333"/>
  <!-- Start & End -->
  <circle cx="130" cy="110" r="10" fill="#3a7"/>
  <text x="150" y="115" font-family="Arial" font-size="14">Start</text>
  <circle cx="770" cy="410" r="10" fill="#a33"/>
  <text x="790" y="415" font-family="Arial" font-size="14">Exit</text>
  <!-- Suggested path (dashed) -->
  <defs><marker id="arrow4" markerWidth="10" markerHeight="10" refX="6" refY="3" orient="auto"><path d="M0,0 L0,6 L6,3 z" fill="#333"/></marker></defs>
  <path d="M130,110 L130,150 L280,150 L280,100 L690,100 L690,390 L770,390" fill="none" stroke="#888" stroke-width="3" stroke-dasharray="6 6" marker-end="url(#arrow4)"/>
</svg>